<?xml version="1.0" encoding="UTF-8" standalone="no"?>
<!-- Created with Inkscape (http://www.inkscape.org/) -->

<svg
   width="64pt"
   height="64pt"
   viewBox="0 0 22.577778 22.577778"
   version="1.1"
   id="svg831"
   inkscape:version="1.1.1 (3bf5ae0d25, 2021-09-20)"
   sodipodi:docname="Export - Unblash - 64px.svg"
   inkscape:export-filename="C:\Users\User\Desktop\Done Januari 2k22\EX\13 - Workspace.png"
   inkscape:export-xdpi="576"
   inkscape:export-ydpi="576"
   xmlns:inkscape="http://www.inkscape.org/namespaces/inkscape"
   xmlns:sodipodi="http://sodipodi.sourceforge.net/DTD/sodipodi-0.dtd"
   xmlns="http://www.w3.org/2000/svg"
   xmlns:svg="http://www.w3.org/2000/svg"
   xmlns:rdf="http://www.w3.org/1999/02/22-rdf-syntax-ns#"
   xmlns:cc="http://creativecommons.org/ns#"
   xmlns:dc="http://purl.org/dc/elements/1.1/">
  <defs
     id="defs825">
    <pattern
       id="EMFhbasepattern"
       patternUnits="userSpaceOnUse"
       width="6"
       height="6"
       x="0"
       y="0" />
    <pattern
       id="EMFhbasepattern-9"
       patternUnits="userSpaceOnUse"
       width="6"
       height="6"
       x="0"
       y="0" />
    <pattern
       id="EMFhbasepattern-0"
       patternUnits="userSpaceOnUse"
       width="6"
       height="6"
       x="0"
       y="0" />
    <pattern
       id="EMFhbasepattern-7"
       patternUnits="userSpaceOnUse"
       width="6"
       height="6"
       x="0"
       y="0" />
    <pattern
       id="EMFhbasepattern-2"
       patternUnits="userSpaceOnUse"
       width="6"
       height="6"
       x="0"
       y="0" />
    <pattern
       id="EMFhbasepattern-98"
       patternUnits="userSpaceOnUse"
       width="6"
       height="6"
       x="0"
       y="0" />
    <pattern
       id="EMFhbasepattern-6"
       patternUnits="userSpaceOnUse"
       width="6"
       height="6"
       x="0"
       y="0" />
    <pattern
       id="EMFhbasepattern-01"
       patternUnits="userSpaceOnUse"
       width="6"
       height="6"
       x="0"
       y="0" />
    <pattern
       id="EMFhbasepattern-07"
       patternUnits="userSpaceOnUse"
       width="6"
       height="6"
       x="0"
       y="0" />
    <pattern
       id="EMFhbasepattern-8"
       patternUnits="userSpaceOnUse"
       width="6"
       height="6"
       x="0"
       y="0" />
    <pattern
       id="EMFhbasepattern-4"
       patternUnits="userSpaceOnUse"
       width="6"
       height="6"
       x="0"
       y="0" />
    <pattern
       id="EMFhbasepattern-40"
       patternUnits="userSpaceOnUse"
       width="6"
       height="6"
       x="0"
       y="0" />
    <pattern
       id="EMFhbasepattern-08"
       patternUnits="userSpaceOnUse"
       width="6"
       height="6"
       x="0"
       y="0" />
    <pattern
       id="EMFhbasepattern-04"
       patternUnits="userSpaceOnUse"
       width="6"
       height="6"
       x="0"
       y="0" />
    <pattern
       id="EMFhbasepattern-014"
       patternUnits="userSpaceOnUse"
       width="6"
       height="6"
       x="0"
       y="0" />
    <pattern
       id="EMFhbasepattern-27"
       patternUnits="userSpaceOnUse"
       width="6"
       height="6"
       x="0"
       y="0" />
    <pattern
       id="EMFhbasepattern-09"
       patternUnits="userSpaceOnUse"
       width="6"
       height="6"
       x="0"
       y="0" />
    <pattern
       id="EMFhbasepattern-5"
       patternUnits="userSpaceOnUse"
       width="6"
       height="6"
       x="0"
       y="0" />
    <pattern
       id="EMFhbasepattern-018"
       patternUnits="userSpaceOnUse"
       width="6"
       height="6"
       x="0"
       y="0" />
  </defs>
  <sodipodi:namedview
     id="base"
     pagecolor="#ffffff"
     bordercolor="#666666"
     borderopacity="1.0"
     inkscape:pageopacity="0.0"
     inkscape:pageshadow="2"
     inkscape:zoom="9.1757813"
     inkscape:cx="42.612175"
     inkscape:cy="42.666667"
     inkscape:document-units="pt"
     inkscape:current-layer="layer1"
     showgrid="false"
     units="pt"
     inkscape:window-width="1920"
     inkscape:window-height="1001"
     inkscape:window-x="-9"
     inkscape:window-y="41"
     inkscape:window-maximized="1"
     inkscape:pagecheckerboard="true"
     inkscape:showpageshadow="false"
     inkscape:object-paths="true"
     inkscape:snap-intersection-paths="true"
     inkscape:snap-smooth-nodes="true"
     inkscape:snap-midpoints="true"
     showguides="true"
     inkscape:snap-bbox="true"
     inkscape:bbox-nodes="true"
     inkscape:snap-nodes="true"
     inkscape:snap-global="true">
    <inkscape:grid
       type="xygrid"
       id="grid1378" />
    <sodipodi:guide
       position="0.97013831,21.607643"
       orientation="78.000048,0"
       id="guide1380"
       inkscape:locked="false" />
    <sodipodi:guide
       position="0.97013831,0.97013129"
       orientation="0,78.000005"
       id="guide1382"
       inkscape:locked="false" />
    <sodipodi:guide
       position="21.607639,0.97013129"
       orientation="-78.000048,0"
       id="guide1384"
       inkscape:locked="false" />
    <sodipodi:guide
       position="21.607639,21.607643"
       orientation="0,-78.000005"
       id="guide1386"
       inkscape:locked="false" />
  </sodipodi:namedview>
  <metadata
     id="metadata828">
    <rdf:RDF>
      <cc:Work
         rdf:about="">
        <dc:format>image/svg+xml</dc:format>
        <dc:type
           rdf:resource="http://purl.org/dc/dcmitype/StillImage" />
      </cc:Work>
    </rdf:RDF>
  </metadata>
  <g
     inkscape:label="Icon"
     inkscape:groupmode="layer"
     id="layer1"
     transform="translate(0,-274.42223)">
    <path
       id="path6688"
       style="color:#000000;display:inline;fill:#000000;stroke-width:1;stroke-linecap:round;stroke-linejoin:round;-inkscape-stroke:none"
       d="m 11.958909,275.5608 c -0.547422,0 -1.000294,0.44963 -1.000294,0.99705 v 4.32616 h 10.649012 v -4.32616 c 0,-0.54742 -0.449623,-0.99705 -0.997045,-0.99705 z m -7.5421829,0.99705 c -0.088347,1.9e-4 -0.1729952,0.0355 -0.2352873,0.0981 -0.1307946,0.1301 -0.1307946,0.34177 0,0.47187 l 0.3165325,0.31718 -0.110494,0.11056 c -2.224e-4,2.2e-4 -4.327e-4,3.4e-4 -6.656e-4,6.6e-4 l -1.6775574,1.67886 c -0.1233898,-0.055 -0.2596144,-0.0851 -0.4023122,-0.0851 -0.5474309,0 -0.9976982,0.44961 -0.9976948,0.99704 6.9e-6,0.54508 0.4463125,0.99643 0.9905452,1.00029 l 0.9827458,2.17089 c -0.5557283,0.062 -0.9950884,0.53989 -0.9950951,1.11079 v 0.44977 h 3.0164834 v -0.44977 c -6.9e-6,-0.61229 -0.5056486,-1.11795 -1.1179382,-1.11795 h -0.17744 l -1.0789403,-2.38472 c 0.2290105,-0.18406 0.3769751,-0.46629 0.3769791,-0.7793 1e-6,-0.16437 -0.041194,-0.31968 -0.1130937,-0.45692 l 1.285629,-1.28368 0.1761404,0.52711 c 0.01584,0.0488 0.042759,0.0933 0.078646,0.13 l 0.6928616,0.69286 c 0.1300354,0.13034 0.3411878,0.13034 0.4712236,0 l 1.383123,-1.38313 c 0.1303414,-0.13002 0.1303414,-0.34119 0,-0.47122 l -0.692862,-0.69286 c -0.036689,-0.0358 -0.081176,-0.0628 -0.1299918,-0.0786 l -1.0366924,-0.34643 c -0.1194568,-0.0406 -0.2515874,-0.0101 -0.3412314,0.0786 l -0.1111442,0.11118 -0.3191327,-0.31718 c -0.061708,-0.0624 -0.1455733,-0.098 -0.2333365,-0.0989 z m 11.8676949,0.72276 c 0.08857,10e-6 0.173486,0.0353 0.235937,0.0981 0.13036,0.13003 0.13036,0.34121 0,0.47124 l -0.940498,0.94114 c -0.130102,0.13079 -0.341773,0.13079 -0.471875,0 -0.130794,-0.1301 -0.130794,-0.34177 0,-0.47188 l 0.9405,-0.9405 c 0.06245,-0.0628 0.147364,-0.0981 0.235936,-0.0981 z m 0.941149,0.94115 c 0.08848,-1.6e-4 0.173379,0.035 0.235936,0.0975 0.130795,0.1301 0.130795,0.34177 0,0.47187 l -0.941148,0.94116 c -0.130102,0.13079 -0.341773,0.13079 -0.471873,0 -0.130796,-0.1301 -0.130796,-0.34179 0,-0.47188 l 0.941147,-0.94115 c 0.06256,-0.0626 0.147458,-0.0976 0.235938,-0.0975 z m -8.7797165,0.72147 c -0.1537684,0.1015 -0.1957284,0.30873 -0.09359,0.46211 0.1379923,0.20699 0.1437,0.29952 0.1351925,0.36334 -0.00855,0.0638 -0.051996,0.14039 -0.1351925,0.26519 -0.083201,0.12476 -0.2047969,0.29974 -0.2378872,0.54791 -0.033092,0.24818 0.043091,0.52871 0.2378872,0.8209 0.1017651,0.15355 0.3089077,0.19521 0.4621239,0.0929 0.1531395,-0.10175 0.1947599,-0.30839 0.092948,-0.46147 -0.1379924,-0.20699 -0.1437001,-0.30213 -0.1351926,-0.36593 0.00855,-0.0638 0.051996,-0.13844 0.1351926,-0.26324 0.083201,-0.12477 0.2080456,-0.29973 0.2411359,-0.54792 0.033092,-0.24819 -0.046348,-0.52806 -0.2411359,-0.82025 -0.15747,-0.18006 -0.309929,-0.18618 -0.461475,-0.0936 z m -1.2895295,0.82545 c -0.00855,0.0638 -0.050046,0.14039 -0.1332418,0.26519 -0.083201,0.12476 -0.2073966,0.29974 -0.240487,0.54791 -0.033092,0.24818 0.045694,0.52871 0.240487,0.8209 0.1016519,0.15194 0.3068198,0.19343 0.4595241,0.0929 0.1533647,-0.1015 0.1952845,-0.30821 0.09359,-0.46147 -0.1379911,-0.20699 -0.1436988,-0.30278 -0.1351926,-0.36659 0.00855,-0.0638 0.051996,-0.13778 0.1351926,-0.26258 0.083201,-0.12477 0.2073953,-0.29973 0.2404869,-0.54792 0.023784,-0.18238 -0.1048718,-0.34948 -0.3000367,-0.36366 -0.1951574,-0.0142 -0.3377456,0.10917 -0.3603274,0.27527 z m 3.802291,1.7809 v 0.33408 c 0,0.54743 0.452863,0.99769 1.000294,0.99769 h 3.234872 l -0.16704,0.66557 h -0.07344 c -0.547432,0 -0.997699,0.45025 -0.997696,0.99769 v 0.33409 h 4.657644 v -0.33409 c 3e-6,-0.54744 -0.449613,-0.99769 -0.997045,-0.99769 h -0.07344 l -0.167041,-0.66557 h 3.234871 c 0.547431,0 0.997046,-0.45026 0.997046,-0.99769 v -0.33408 z m -4.2767636,0.49917 c -0.1847998,-7e-4 -0.3347861,0.14928 -0.3340817,0.33408 v 2.49587 h 3.2329217 v -1.49882 h 0.3808779 c 0.2796257,0 0.4985237,0.2215 0.4985237,0.50111 7.32e-4,0.1838 0.15029,0.33221 0.334081,0.33148 0.182776,-6.9e-4 0.330769,-0.1487 0.331481,-0.33148 10e-7,-0.63932 -0.524758,-1.16668 -1.1640857,-1.16668 H 9.5806914 v -0.33148 c 6.981e-4,-0.18379 -0.1476997,-0.33335 -0.3314819,-0.33408 z m -5.70668543,3.4955 c -0.0110054,0.52822 -6.0561e-4,1.15521 0,1.66326 H 21.607627 v -1.66326 z m 2.71425013,2.32883 0.18069,1.08284 -2.209228,6.46389 c -0.072825,0.21548 0.087132,0.43889 0.3145826,0.43937 h 1.3311265 c 0.1373776,-5.9e-4 0.2602732,-0.0855 0.3093829,-0.21383 l 0.9528475,-2.49846 0.4055776,2.43477 c 0.027072,0.16071 0.1665492,0.27819 0.3295316,0.27752 h 1.3285274 c 0.2051629,5.7e-4 0.3619662,-0.18284 0.3295312,-0.38543 l -1.2667798,-7.60067 z m 13.2014219,0 -1.266781,7.60067 c -0.03224,0.2013 0.12243,0.384 0.326283,0.38543 h 1.331776 c 0.162737,3.4e-4 0.301852,-0.1171 0.328882,-0.27752 l 0.406228,-2.43542 0.952196,2.49911 c 0.04912,0.1283 0.172006,0.21324 0.309384,0.21383 h 1.331776 c 0.22745,-4.9e-4 0.387408,-0.22389 0.314583,-0.43937 l -2.209228,-6.46389 0.18069,-1.08284 z m -7.5954814,0.66556 c -0.4555157,0 -0.8326039,0.37707 -0.8326039,0.8326 v 0.83066 h 5.6572883 v -0.83066 c 0,-0.45553 -0.374478,-0.8326 -0.830004,-0.8326 z m -5.1951631,1.79975 0.254136,1.52156 c -0.4347775,1.10048 -0.8548031,2.22339 -1.2784812,3.33368 H 2.4421349 Z m 14.3850065,6.7e-4 1.658707,4.85458 h -0.636314 c -0.427511,-1.10765 -0.840493,-2.23568 -1.275878,-3.33432 z m -9.0013534,0.52842 -1.6840578,4.54454 c -0.063869,0.1723 0.023998,0.36377 0.1962894,0.42768 0.1730548,0.0657 0.3663847,-0.0226 0.4302763,-0.19629 l 1.7672525,-4.77593 z m 1.4747684,0 v 3.99468 c 7.32e-4,0.18378 0.150297,0.33218 0.334082,0.33147 0.182776,-7.1e-4 0.330768,-0.14871 0.331482,-0.33149 v -3.99468 z m 1.433821,0 1.767252,4.77593 c 0.06392,0.17229 0.255374,0.26017 0.427677,0.19629 0.172287,-0.0639 0.260162,-0.25538 0.196289,-0.42768 l -1.681457,-4.54456 z"
       sodipodi:nodetypes="" />
  </g>
</svg>
